<svg xmlns="http://www.w3.org/2000/svg" viewBox="0 0 24 16">
  <rect width="24" height="16" fill="#de2910"/>
  <g fill="#ffde00">
    <polygon points="4,2 5,4 7,4 5.5,5.5 6,7.5 4,6 2,7.5 2.5,5.5 1,4 3,4"/>
    <polygon points="8,1 8.3,1.8 9,1.5 8.8,2.2 9.5,2.5 8.7,2.5 8.5,3.3 8,2.7 7.3,3 7.8,2.2"/>
    <polygon points="9.5,3 9.8,3.8 10.5,3.5 10.3,4.2 11,4.5 10.2,4.5 10,5.3 9.5,4.7 8.8,5 9.3,4.2"/>
    <polygon points="9.5,6 9.8,6.8 10.5,6.5 10.3,7.2 11,7.5 10.2,7.5 10,8.3 9.5,7.7 8.8,8 9.3,7.2"/>
    <polygon points="8,8.5 8.3,9.3 9,9 8.8,9.7 9.5,10 8.7,10 8.5,10.8 8,10.2 7.3,10.5 7.8,9.7"/>
  </g>
</svg>
